<?xml version="1.0" standalone="no"?>
<!DOCTYPE svg PUBLIC "-//W3C//DTD SVG 20010904//EN"
 "http://www.w3.org/TR/2001/REC-SVG-20010904/DTD/svg10.dtd">
<svg version="1.0" xmlns="http://www.w3.org/2000/svg"
 width="299.000000pt" height="299.000000pt" viewBox="0 0 299.000000 299.000000"
 preserveAspectRatio="xMidYMid meet">
<metadata>
Created by potrace 1.11, written by Peter Selinger 2001-2013
</metadata>
<g transform="translate(0.000000,299.000000) scale(0.100000,-0.100000)"
fill="#000000" stroke="none">
<path d="M1997 2973 c-3 -5 8 -48 25 -96 16 -49 28 -103 26 -120 l-3 -32 -17
31 c-24 45 -117 144 -134 144 -33 0 -26 -32 18 -78 94 -98 118 -149 40 -83
-114 96 -302 180 -465 206 -118 19 -350 19 -459 0 -124 -21 -213 -55 -213 -80
0 -16 8 -21 40 -25 l40 -5 -35 -15 c-64 -26 -204 -127 -261 -186 -30 -33 -77
-92 -104 -132 -39 -59 -47 -77 -38 -90 8 -14 5 -25 -13 -52 -32 -46 -32 -74
-1 -68 l24 5 -23 -66 c-29 -81 -34 -228 -9 -237 8 -4 22 -1 29 5 12 10 15 6
21 -17 3 -16 5 -44 4 -63 -1 -19 4 -80 11 -136 l12 -102 -42 -40 -42 -40 4
-134 c3 -127 5 -136 32 -177 15 -23 30 -58 32 -78 9 -68 13 -79 40 -105 28
-28 70 -35 104 -17 17 9 20 4 30 -48 26 -137 58 -218 107 -272 49 -55 184
-160 318 -250 101 -67 109 -74 68 -65 -35 7 -125 -15 -372 -92 -79 -24 -169
-49 -200 -54 -30 -4 -59 -13 -64 -18 -13 -13 271 -153 388 -190 54 -18 151
-44 215 -59 106 -24 133 -26 350 -27 274 0 365 14 605 92 89 29 344 153 364
176 11 14 7 17 -26 22 -39 6 -129 31 -401 111 -117 34 -161 43 -190 38 -34 -6
-30 -2 48 51 162 110 299 216 339 262 48 53 74 118 97 242 12 61 21 88 28 81
5 -5 26 -10 46 -10 53 0 89 41 99 111 4 30 20 76 36 103 26 44 29 58 33 172 5
122 4 124 -22 158 -14 19 -34 37 -45 41 -21 6 -32 62 -24 125 5 32 8 38 19 29
8 -6 21 -8 30 -5 14 5 16 16 10 61 -4 35 -2 56 5 61 29 18 -28 256 -87 362
-19 34 -33 62 -31 62 3 0 21 -7 41 -15 69 -29 76 6 13 69 -58 58 -141 112
-200 132 -36 12 -47 20 -43 32 22 77 12 157 -19 157 -11 0 -24 -10 -30 -22 -5
-13 -12 -23 -15 -23 -3 0 -11 27 -17 60 -12 64 -59 170 -92 208 -19 22 -46 29
-54 15z m-312 -578 c33 -9 106 -30 163 -47 100 -29 129 -31 197 -12 25 6 66
-59 124 -196 21 -52 51 -117 66 -143 27 -47 49 -138 64 -262 5 -33 7 -61 6
-62 0 -1 -32 3 -70 9 -55 9 -81 20 -120 49 -78 58 -118 71 -235 76 -133 7
-184 -6 -206 -49 -13 -25 -14 -36 -5 -51 7 -10 11 -20 9 -21 -4 -3 -121 -26
-166 -33 -17 -3 -60 2 -95 10 -34 9 -75 19 -90 22 -25 5 -26 7 -12 21 18 19
18 18 0 53 -20 40 -61 51 -181 51 -121 0 -187 -20 -262 -79 -34 -27 -62 -40
-97 -45 -28 -4 -60 -10 -72 -13 -22 -5 -23 -2 -23 45 0 41 3 51 20 55 18 5 20
14 20 79 0 40 5 90 10 110 10 34 13 36 30 26 24 -15 31 -8 54 57 10 28 36 81
59 119 36 62 41 67 48 48 11 -29 40 -28 70 4 72 78 237 174 330 194 65 13 293
4 364 -15z m-566 -691 c2 -2 -36 -4 -85 -3 -61 0 -83 3 -69 9 18 8 144 3 154
-6z m901 6 c16 -5 -4 -8 -60 -8 -70 1 -77 2 -40 8 60 9 71 9 100 0z m-841 -70
c167 -18 210 -54 197 -164 -11 -82 -42 -136 -96 -163 -139 -70 -380 -49 -425
36 -22 44 -41 184 -29 218 23 68 151 94 353 73z m914 -12 c21 -6 48 -23 59
-37 18 -23 20 -35 14 -104 -8 -112 -33 -162 -93 -189 -91 -40 -263 -34 -359
13 -54 26 -79 66 -95 151 -16 88 -3 123 58 150 81 36 318 45 416 16z m-1573
-12 c0 -2 3 -11 6 -19 3 -9 -3 -16 -16 -20 -26 -7 -18 -27 10 -27 24 0 37 -24
46 -81 4 -24 11 -49 16 -56 6 -7 7 -30 3 -52 -5 -30 -1 -49 18 -87 35 -68 39
-104 18 -133 -15 -20 -21 -22 -39 -12 -21 11 -42 65 -42 109 0 12 -12 41 -27
65 -23 36 -28 58 -35 151 -6 94 -5 113 9 137 15 25 33 38 33 25z m1991 -132
c-2 -116 -6 -137 -38 -185 -13 -20 -26 -59 -30 -87 -5 -48 -31 -92 -53 -92 -5
0 -15 9 -23 21 -13 18 -13 27 0 76 8 31 21 66 30 79 12 19 13 32 5 64 -9 35
-7 42 8 50 12 6 19 26 23 65 6 61 20 87 43 78 8 -3 14 1 14 11 0 9 -7 16 -15
16 -17 0 -18 2 -9 25 6 15 9 15 27 -3 17 -18 19 -32 18 -118z m-180 -68 c16
-17 10 -100 -16 -202 -13 -54 -35 -148 -49 -209 -31 -140 -37 -155 -83 -206
-71 -79 -366 -288 -488 -346 -131 -62 -257 -65 -381 -9 -122 56 -452 293 -511
368 -37 46 -54 99 -107 328 -47 207 -53 254 -32 275 10 11 16 34 16 66 0 27 3
49 8 49 23 0 72 -43 77 -67 19 -86 47 -162 67 -180 35 -33 89 -52 175 -61 135
-15 261 7 331 58 45 32 64 62 82 129 12 46 49 91 75 91 28 0 62 -45 82 -106
25 -82 72 -127 160 -154 118 -37 314 -27 391 20 44 27 68 70 87 156 15 69 19
75 58 99 l42 25 3 -58 c2 -31 7 -61 13 -66z m-894 -1056 c84 -13 170 -1 250
35 30 13 55 20 58 14 4 -5 18 -9 33 -9 15 0 34 -5 42 -10 13 -8 12 -14 -5 -47
-27 -51 -91 -114 -139 -137 -94 -44 -274 -43 -364 3 -43 22 -112 93 -137 141
-19 37 -10 50 37 50 15 0 29 4 32 9 3 5 32 -2 64 -15 32 -13 90 -28 129 -34z"/>
<path d="M1010 1581 c-104 -22 -227 -121 -151 -121 10 0 38 -14 62 -32 24 -18
60 -38 79 -45 48 -17 127 -15 175 3 22 9 59 23 83 31 34 12 42 20 42 40 0 37
-38 83 -86 105 -49 21 -151 31 -204 19z m27 -49 c-33 -37 -16 -97 33 -115 9
-3 5 -6 -11 -6 -28 -1 -121 42 -140 65 -17 20 -3 32 63 55 67 23 75 23 55 1z
m169 -10 c11 -6 28 -20 39 -32 23 -25 19 -29 -63 -60 -62 -24 -118 -28 -65 -5
40 17 53 57 31 96 -16 27 -16 27 12 19 15 -4 36 -12 46 -18z m-86 -12 c0 -5
-7 -10 -15 -10 -8 0 -15 5 -15 10 0 6 7 10 15 10 8 0 15 -4 15 -10z"/>
<path d="M1827 1580 c-82 -21 -137 -70 -137 -123 0 -20 8 -28 43 -40 23 -8 60
-22 82 -31 48 -18 127 -20 175 -3 19 7 55 27 79 45 24 18 52 32 62 32 10 0 20
4 23 9 10 15 -72 78 -123 96 -58 20 -155 27 -204 15z m16 -58 c-23 -40 -11
-80 30 -97 53 -23 -3 -19 -65 5 -85 32 -87 35 -57 65 20 20 73 47 106 55 1 0
-5 -13 -14 -28z m195 -3 c23 -10 42 -22 42 -27 0 -24 -112 -83 -153 -81 -15 0
-17 2 -7 6 49 18 66 78 33 115 -17 19 -16 19 12 13 17 -4 49 -16 73 -26z
m-108 -9 c0 -5 -4 -10 -10 -10 -5 0 -10 5 -10 10 0 6 5 10 10 10 6 0 10 -4 10
-10z"/>
<path d="M1292 1178 c-29 -32 -36 -69 -18 -93 15 -19 15 -18 16 16 0 21 9 47
20 62 33 42 19 54 -18 15z"/>
<path d="M1660 1190 c0 -5 9 -19 20 -30 11 -11 20 -33 20 -50 0 -21 5 -30 16
-30 13 0 15 7 11 36 -8 47 -67 112 -67 74z"/>
<path d="M1337 1093 c-16 -16 -5 -32 21 -31 15 0 45 -7 67 -15 52 -21 100 -21
166 -1 30 9 60 18 68 20 11 3 11 7 1 19 -16 19 -40 19 -76 0 -36 -19 -121 -19
-154 0 -26 15 -82 20 -93 8z"/>
<path d="M1735 890 c-3 -5 -3 -15 0 -20 13 -21 -56 -32 -220 -33 -181 -1 -259
11 -249 38 7 18 -6 19 -41 3 -28 -13 -32 -35 -10 -64 12 -15 16 -16 23 -6 8
11 17 11 53 0 53 -15 375 -16 431 0 27 7 38 7 42 -1 6 -14 36 20 36 39 0 18
-57 57 -65 44z"/>
<path d="M1346 753 c-25 -25 37 -43 149 -43 96 0 159 14 152 34 -3 6 -11 9
-18 7 -31 -10 -221 -12 -248 -3 -16 6 -32 8 -35 5z"/>
</g>
</svg>
